<svg version="1.1" xmlns="http://www.w3.org/2000/svg" style="display: block;" viewBox="0 0 2048 2048" width="2048" height="2048" preserveAspectRatio="none">
<path transform="translate(0,0)" fill="rgb(255,255,255)" d="M 19.8717 29.7333 C 20.8625 30.7047 22.5392 32.2839 24.0094 32.3535 C 44.3051 33.3137 65.1932 32.4733 85.5461 32.3938 C 89.6712 32.3776 97.9993 30.5447 100.998 31.8104 C 103.936 33.0506 102.658 32.6224 106.386 33.1011 L 108.526 30.6131 C 121.682 34.8153 172.164 32.5585 188.869 32.562 L 338.382 32.4835 L 340.241 30.2187 C 341.161 30.9949 342.081 31.7711 343 32.5474 C 374.777 32.5476 424.202 32.5195 457.729 32.6144 C 458.537 31.9406 459.345 31.2668 460.153 30.593 C 462.58 32.4583 462.394 32.3439 465.411 32.9188 L 467.347 30.7711 C 472.553 31.9433 475 32.639 480.404 32.8308 L 482.32 30.5252 C 487.633 33.8179 515.45 32.7947 523.517 32.9189 L 525.305 30.8132 C 535.3 31.9192 543.308 32.7953 553.376 32.523 L 555.495 30.0931 L 557.48 32.2857 L 739.786 32.5613 C 772.317 32.472 807.067 31.7493 839.399 32.2202 L 841.526 30.0423 L 843.536 32.1467 C 853.989 33.3583 888.108 32.417 899.381 32.1637 L 901.5 29.8888 L 903.488 32.2457 C 932.33 34.099 968.677 31.7511 997.782 31.8444 C 1017.03 31.9061 1034.64 33.0221 1054.41 32.3573 L 1056.55 29.991 C 1060.69 33.5155 1067.01 31.4205 1072.99 31.5731 C 1092.45 32.0697 1111.89 32.4881 1131.37 32.6147 L 1133.48 30.376 C 1137.41 35.1774 1138.34 31.8751 1144.51 30.5281 C 1145.12 31.2401 1145.74 31.9522 1146.35 32.6642 C 1158.83 33.2579 1172.68 30.5891 1184.98 31.595 C 1181.62 31.3197 1192.42 33.4972 1189.95 32.9867 C 1192.16 32.0585 1191.98 32.1899 1193.47 30.5097 L 1195.6 32.574 C 1217.89 31.7222 1239.65 32.655 1261.92 32.5123 C 1262.77 31.8308 1263.62 31.1494 1264.46 30.4679 L 1266.28 32.6893 C 1271.17 33.448 1276.3 31.2981 1281.03 31.6508 C 1306.03 33.5155 1330.36 31.2538 1355.42 32.8402 L 1357.41 30.8104 C 1363.98 31.6041 1369.42 32.3176 1376.05 32.4467 L 1378.48 30.0931 L 1380.3 32.3237 C 1395.81 33.3806 1419.2 33.1296 1434.49 30.3637 L 1436.31 32.4078 L 1614.09 32.6031 C 1629.56 32.5202 1645.31 31.8394 1660.8 31.9715 C 1667.02 32.0245 1689.22 28.7579 1693.19 32.7767 C 1705.36 45.0816 1717.53 57.511 1729.8 69.7242 L 1821.03 160.769 L 1953 292.129 C 1977.24 316.125 2001.29 340.502 2025.6 364.461 C 2029.47 368.278 2028.78 369.968 2029.06 375.231 C 2029.92 391.127 2028.62 407.414 2028.76 423.247 C 2029.44 461.192 2029.61 499.143 2029.27 537.092 C 2029.19 550.383 2028.38 563.899 2028.37 577.002 L 2028.21 724.914 C 2028.27 746.166 2029.93 771.216 2029.05 791.561 C 2027.46 794.021 2028.58 793.306 2025.95 794.153 L 2023.46 792.329 C 2014.15 791.763 2004.81 792.296 1995.63 793.918 L 1993.37 791.766 C 1974.79 792.064 1956.15 791.631 1937.59 792.27 L 1935.62 794.553 L 1933.72 792.377 C 1927.57 790.885 1886.21 792.441 1877.52 792.802 C 1873.13 792.984 1867.31 791.857 1863.05 791.943 C 1838.68 792.434 1817.62 790.372 1793.53 794.126 L 1791.38 791.876 C 1777.01 791.605 1761.84 791.69 1747.49 792.269 C 1704.75 793.995 1656.44 788.85 1613.97 793.157 C 1611.37 791.589 1611.51 791.384 1608.55 791.461 L 1606.49 793.96 C 1594.16 791.579 1595.12 792.273 1583.14 791.79 C 1581.42 788.147 1582.04 729.546 1582.03 719.948 L 1582.04 478.096 C 1582.06 462.733 1581.74 441.555 1582.94 425.681 C 1582.5 425.034 1582.05 424.387 1581.61 423.741 C 1574.71 420.33 1540.69 421.8 1530 421.794 L 1431 421.762 L 1356.61 421.76 C 1343.31 421.763 1325.77 421.283 1312.8 422.237 C 1309.55 425.482 1309.57 424.422 1309.41 428.987 C 1308.44 456.987 1310.24 485.588 1310.39 513.402 L 1310.02 639.719 L 1309.32 1157.36 L 1309.34 1299.42 L 1309.57 1349.12 C 1309.62 1357.01 1310.23 1366.21 1309.69 1373.81 C 1311.67 1385.53 1310.03 1410.24 1309.95 1423.03 L 1309.52 1522.38 L 1311.19 1863.45 C 1311.3 1898.64 1311.22 1933.82 1310.94 1969 C 1310.86 1976.25 1312.12 2008.46 1308.92 2012.67 C 1288.03 2014.48 1242.5 2013.13 1220.14 2013.13 L 1044.14 2013.14 L 843.483 2013.18 C 814.616 2013.19 766.392 2014.66 738.685 2012.69 C 735.708 1996.19 739.571 1965.66 738.688 1947.5 C 735.225 1876.32 739.464 1804.59 738.574 1733.47 L 737.619 1407.88 C 737.75 1379.18 738.636 1350.69 738.624 1321.79 L 737.708 841.209 L 738.065 545.929 L 738.703 463.01 C 738.693 450.914 739.117 435.823 737.885 424.04 C 730.831 420.759 705.255 421.739 696.153 421.739 L 632.653 421.752 L 524.495 421.794 C 507.206 421.791 489.784 421.674 472.491 421.741 C 468.409 421.757 468.069 422.035 465.344 424.079 C 463.731 427.925 464.685 550.14 464.688 561.769 L 464.058 792.043 C 457.495 791.917 446.713 792.463 439.572 793.965 C 438.831 793.225 438.09 792.485 437.349 791.745 C 418.121 792.049 398.416 791.933 379.229 792.165 C 372.654 792.244 367.155 794.011 362.058 792.549 C 358.309 791.473 359.93 791.581 355.658 791.97 L 353.703 794.485 C 352.809 793.724 351.914 792.962 351.019 792.201 C 292.376 793.43 230.982 790.276 172.559 792.255 L 170.598 794.521 C 170.133 794.053 169.718 793.528 169.201 793.117 C 165.337 790.04 33.8155 792.945 21.6688 793.35 L 20.9094 792.262 C 18.6373 767.208 20.7156 726.942 20.6343 699.956 L 19.8463 508.581 L 18.7368 144.393 L 18.6626 71.418 C 18.6563 63.4616 17.9629 35.832 19.8717 29.7333 z M 984.835 1617.64 L 985.132 1619.79 C 992.109 1620.68 1006.79 1620.32 1014.24 1620.31 L 1065.96 1620.19 L 1065.52 791.242 L 1066.01 539.377 C 1065.99 501.763 1064.35 461.969 1065.18 424.971 C 1059.26 419.642 997.408 421.742 984.918 421.795 C 980.138 428.972 984.175 449.4 983.857 459.59 C 982.373 507.04 984.412 554.892 983.844 602.295 C 982.444 848.214 982.484 1094.14 983.965 1340.06 L 983.174 1522.87 L 982.997 1576.09 C 982.875 1586.67 981.565 1608.56 984.835 1617.64 z"/>
<path transform="translate(0,0)" fill="rgb(255,187,0)" d="M 1952.7 1644.85 C 1956.4 1647.3 1960.66 1647.3 1963.94 1644.36 C 1965.32 1650.32 1963.82 1698.42 1963.81 1707.13 L 1963.81 1917.63 C 1954.12 1918.33 1937.09 1917.78 1926.95 1917.79 L 1853.21 1917.79 L 1853.21 1858.5 L 1853.29 1766.06 C 1853.32 1755.5 1853.98 1726.55 1852.73 1717.72 C 1847.33 1713.15 1802.66 1715.59 1792.1 1715.29 C 1791.23 1713.18 1790.7 1683.53 1792.84 1681.09 C 1803.74 1668.67 1817.35 1658.09 1829.42 1646.44 C 1845.91 1646.26 1946.38 1648.42 1952.7 1644.85 z"/>
<path transform="translate(0,0)" fill="rgb(255,187,0)" d="M 1431.18 1727.09 C 1442.38 1725.97 1471.71 1726.82 1484.56 1726.72 C 1496.38 1726.62 1530.1 1725.91 1540.29 1727.3 C 1546.99 1740.93 1552.04 1757.38 1557.11 1771.87 C 1563.24 1789.43 1569.59 1806.92 1576.13 1824.33 C 1598.58 1885.32 1624.97 1952.3 1644.71 2013.5 C 1633.59 2006.46 1558.37 2015.71 1539.68 2010.36 C 1529.79 1989.59 1520.78 1958.13 1511.73 1936.01 C 1493.26 1890.87 1476.87 1844.38 1458.82 1798.96 C 1450.24 1777.39 1442.14 1749.21 1432.02 1728.76 L 1431.18 1727.09 z"/>
<path transform="translate(0,0)" fill="rgb(255,187,0)" d="M 1649.91 1726.83 C 1682.25 1726.78 1723.3 1725.54 1754.94 1727.11 L 1756.01 1728.36 C 1755.39 1734.26 1751.1 1739.07 1750.71 1743.01 C 1749.94 1751.01 1744.99 1757.65 1742.39 1765 C 1725.28 1813.47 1706.95 1861.61 1690.05 1910.15 C 1688.26 1915.28 1676 1945.73 1676.19 1948.48 C 1668.9 1958.07 1667.61 1973.72 1661.27 1983.84 C 1660.19 1985.57 1660.75 1985.16 1661 1988.17 L 1660.22 1988.64 C 1658.39 1981.97 1654.35 1975.76 1652.8 1969.34 C 1650.86 1957.6 1641.01 1940.85 1638.74 1930.74 C 1636.73 1921.78 1609.36 1849.04 1610.85 1844.66 C 1622.34 1810.85 1633.34 1780.17 1644.16 1746.29 C 1646.34 1739.44 1648.83 1733.82 1649.91 1726.83 z"/>
<path transform="translate(0,0)" fill="rgb(255,187,0)" d="M 1798.18 1939.69 L 1798.37 1940.59 C 1808.79 1941.33 1816.35 1941.9 1827.06 1941.89 C 1884.55 1941.83 1942.05 1941.96 1999.53 1941.77 C 2005.38 1941.75 2025.5 1939.56 2028.48 1941.75 C 2026.37 1952.9 2027.38 1997.67 2027.4 2011.21 L 2016.5 2011.28 L 1860.21 2011.33 C 1849.04 2011.33 1799.24 2012.01 1790.63 2010.24 C 1790.4 1991.76 1789.53 1957.51 1791.55 1940.74 C 1796.32 1941.28 1795.01 1941.86 1798.18 1939.69 z"/>
</svg>