<?xml version="1.0" encoding="utf-8"?>
<!-- Generator: Adobe Illustrator 21.1.0, SVG Export Plug-In . SVG Version: 6.00 Build 0)  -->
<svg version="1.1" id="Слой_1" xmlns="http://www.w3.org/2000/svg" xmlns:xlink="http://www.w3.org/1999/xlink" x="0px" y="0px"
	 viewBox="0 0 37.4 50.4" style="enable-background:new 0 0 37.4 50.4;" xml:space="preserve">
<style type="text/css">
	.st0{fill:url(#SVGID_1_);}
	.st1{fill:url(#SVGID_2_);}
	.st2{fill:url(#SVGID_3_);}
</style>
<linearGradient id="SVGID_1_" gradientUnits="userSpaceOnUse" x1="13.9447" y1="19.7651" x2="13.9447" y2="1.6299" gradientTransform="matrix(1 0 0 -1 1.586523e-07 52)">
	<stop  offset="0" style="stop-color:#ffffff"/>
	<stop  offset="1" style="stop-color:#ffffff"/>
</linearGradient>
<path class="st0" d="M27.9,37.1V45c0,0.8-0.6,1.2-1.3,0.8l-5.5-3.1l1.5-4c0.7-0.5,1.5-1,2.2-1.2C25.7,37.1,26.8,37.2,27.9,37.1z
	 M20.4,40l-3.6,9.7c-0.3,0.8-1,0.9-1.5,0.3l-4.7-5.5c-0.5-0.6-1.6-1-2.4-0.9L1,44.8c-0.8,0.1-1.2-0.4-1-1.2l4.2-11.4
	c0.6,1.5,1,3.2,2.2,4.1c1.7,1.2,4.4,0.5,6.5,1.1c2,0.6,3.7,2.9,5.9,2.9C19.4,40.3,19.9,40.2,20.4,40z"/>
<linearGradient id="SVGID_2_" gradientUnits="userSpaceOnUse" x1="18.829" y1="45.4721" x2="18.829" y2="19.8728" gradientTransform="matrix(1 0 0 -1 1.586523e-07 52)">
	<stop  offset="0" style="stop-color:#ffffff"/>
	<stop  offset="1" style="stop-color:#ffffff"/>
</linearGradient>
<path class="st1" d="M18.8,6.5C11.8,6.5,6,12.3,6,19.3c0,7.1,5.7,12.8,12.8,12.8c7.1,0,12.8-5.7,12.8-12.8
	C31.6,12.3,25.9,6.5,18.8,6.5z M25.7,26.7c-1.5-1.5-4.9-2.3-4.9-2.3s-0.1-0.1,0-1.3c0-0.4,0.3-0.8,0.3-1.2c0.1-0.6,0.2-1.1,0.2-1.1
	s0.3,0.1,0.4-0.1c0.2-0.4,0.4-1.2,0.5-1.6c0.1-0.5-0.5-0.5-0.5-0.5s0.7-1.8,0.3-2.9c-0.3-1-1.7-1.5-1.7-1.5s0-0.3-0.7-0.5
	c-0.8-0.2-2.5-0.2-3.8,0.9c-1.2,1.1-1.1,2.7-1.1,2.7l0.2,1.2c0,0-0.3-0.1-0.4,0.4c0,0.5,0.3,1.4,0.6,1.7c0.2,0.3,0.4,0,0.4,0
	s0,0.4,0.1,0.9c0.1,0.3,0.3,0.7,0.3,1c0.2,1.3,0.2,1.8,0.2,1.8s-3.1,0.8-4.4,2.2c-1.9-1.8-3.2-4.4-3.2-7.3c0-5.6,4.5-10.1,10.1-10.1
	c5.6,0,10.1,4.5,10.1,10.1C28.9,22.2,27.7,24.8,25.7,26.7z"/>
<linearGradient id="SVGID_3_" gradientUnits="userSpaceOnUse" x1="18.8304" y1="52" x2="18.8304" y2="13.3514" gradientTransform="matrix(1 0 0 -1 1.586523e-07 52)">
	<stop  offset="0" style="stop-color:#ffffff"/>
	<stop  offset="1" style="stop-color:#ffffff"/>
</linearGradient>
<path class="st2" d="M37.2,13.4c-0.6-1.9-3.1-2.8-4.2-4.3c-1.1-1.6-1.3-4.2-2.8-5.3c-1.5-1.1-4.1-0.4-5.9-1C22.5,2.1,20.8,0,18.8,0
	c-2,0-3.6,2.1-5.4,2.7c-1.9,0.6-4.4-0.1-5.9,1C5.9,4.8,5.8,7.5,4.6,9c-1.1,1.6-3.6,2.5-4.2,4.3c-0.6,1.8,0.9,4,0.9,6
	c0,2-1.4,4.2-0.9,6c0.6,1.9,3.1,2.8,4.2,4.3c1.1,1.6,1.3,4.2,2.8,5.3c1.6,1.1,4.1,0.4,5.9,1c1.8,0.6,3.4,2.7,5.4,2.7
	c2,0,3.6-2.1,5.4-2.7c1.9-0.6,4.4,0.1,5.9-1c1.6-1.1,1.7-3.8,2.8-5.3c1.1-1.5,3.6-2.5,4.2-4.3c0.6-1.8-0.8-4-0.8-6
	C36.4,17.3,37.8,15.2,37.2,13.4z M18.8,33.5c-7.9,0-14.2-6.4-14.2-14.2c0-7.9,6.4-14.2,14.2-14.2c7.9,0,14.2,6.4,14.2,14.2
	C33.1,27.2,26.7,33.5,18.8,33.5z"/>
</svg>
